<svg xmlns="http://www.w3.org/2000/svg" width="200" height="200" fill="none" viewBox="0 0 200 200">
<!-- Shadow -->
<path d="m100.3 174.2c33.78 0 68.4-1.92 68.99-3.73 0.44-1.33-15.38-3.32-66.9-3.57-31.09-0.15-65.24 1.78-65.24 3.57 0 2.09 27.74 3.73 63.15 3.73z" fill="#0B486B" opacity=".25"/>

<!-- "JobBored" text -->
<text x="100" y="194" text-anchor="middle" font-family="'Futura', 'Century Gothic', 'Avenir', sans-serif" font-size="14" letter-spacing="-0.5" fill="#003851">
  <tspan font-weight="800">Job</tspan><tspan font-weight="400" font-style="italic" fill="#59CB89">Bored</tspan>
</text>
<text x="100" y="194" text-anchor="middle" font-family="'Futura', 'Century Gothic', 'Avenir', sans-serif" font-size="14" letter-spacing="-0.5" fill="none" stroke="#003851" stroke-width="0.15">
  <tspan font-weight="800">Job</tspan><tspan font-weight="400" font-style="italic">Bored</tspan>
</text>

<!-- Thought bubble -->
<path d="m102.1 2c-38.06 0-72.01 13.08-72.27 40.61-0.08 8.35 3.25 15.95 8.95 16.35 3.57 0.25 4.8-2.12 9.94-3.6 5.24-1.52 11.77-1.71 20.4 0.04 11.68 2.52 26.38 6.33 47.81 6.33 29.03 0 52.68-9.25 52.68-24.61 0-16.89-22.72-35.12-67.51-35.12z" fill="#FEFFFE" stroke="#003851" stroke-miterlimit="10" stroke-width="1.2"/>

<!-- Thought bubble contents: Job-oriented icons -->

<!-- Resume/Document icon (left) -->
<rect x="40" y="18" width="16" height="20" rx="1.5" fill="#FEFFFE" stroke="#003851" stroke-width=".7"/>
<line x1="43.5" y1="22" x2="52.5" y2="22" stroke="#003851" stroke-width=".7"/>
<line x1="43.5" y1="25" x2="52.5" y2="25" stroke="#003851" stroke-width=".7"/>
<line x1="43.5" y1="28" x2="49" y2="28" stroke="#003851" stroke-width=".7"/>
<line x1="43.5" y1="31" x2="51" y2="31" stroke="#003851" stroke-width=".7"/>
<line x1="43.5" y1="34" x2="47" y2="34" stroke="#003851" stroke-width=".7"/>
<!-- Small green checkmark on resume -->
<path d="m51 33 1.5 1.5 3-3" stroke="#59CB89" stroke-width="1" stroke-linecap="round" stroke-linejoin="round" fill="none"/>

<!-- Stack of dollar bills (compensation) -->
<rect x="62" y="30" width="18" height="9" rx="1.5" fill="#59CB89" stroke="#003851" stroke-width=".7"/>
<rect x="63" y="27" width="18" height="9" rx="1.5" fill="#EF8F26" stroke="#003851" stroke-width=".7"/>
<rect x="64" y="24" width="18" height="9" rx="1.5" fill="#59CB89" stroke="#003851" stroke-width=".7"/>
<text x="73" y="30.5" text-anchor="middle" font-family="'Courier New', monospace" font-size="6" font-weight="bold" fill="#003851">$</text>

<!-- Phone icon (phone screens / calls) -->
<rect x="88" y="20" width="10" height="18" rx="2" fill="#FEFFFE" stroke="#003851" stroke-width=".7"/>
<rect x="89.5" y="23" width="7" height="10" rx="0.5" fill="#EF8F26" opacity="0.3" stroke="none"/>
<circle cx="93" cy="36" r="1" fill="#003851"/>
<!-- Signal waves -->
<path d="m100 22c1.5-1.5 1.5-4 0-5.5" stroke="#59CB89" stroke-width=".7" stroke-linecap="round" fill="none"/>
<path d="m102 20c2.5-2.5 2.5-6.5 0-9" stroke="#59CB89" stroke-width=".7" stroke-linecap="round" fill="none"/>

<!-- Calendar / Interview icon -->
<rect x="108" y="18" width="16" height="16" rx="1.5" fill="#FEFFFE" stroke="#003851" stroke-width=".7"/>
<rect x="108" y="18" width="16" height="5" rx="1.5" fill="#EF8F26" stroke="#003851" stroke-width=".7"/>
<circle cx="112" cy="28" r="1" fill="#003851"/>
<circle cx="116" cy="28" r="1" fill="#003851"/>
<circle cx="120" cy="28" r="1" fill="#59CB89"/>
<circle cx="112" cy="31.5" r="1" fill="#003851"/>
<circle cx="116" cy="31.5" r="1" fill="#59CB89"/>
<!-- Calendar hooks -->
<line x1="112" y1="16.5" x2="112" y2="19.5" stroke="#003851" stroke-width=".9" stroke-linecap="round"/>
<line x1="120" y1="16.5" x2="120" y2="19.5" stroke="#003851" stroke-width=".9" stroke-linecap="round"/>

<!-- Laptop / App icon (far right) -->
<path d="m130 37h20l1.5 3h-23l1.5-3z" fill="#003851" stroke="#003851" stroke-width=".5" stroke-linejoin="round"/>
<rect x="131" y="23" width="18" height="14" rx="1.5" fill="#FEFFFE" stroke="#003851" stroke-width=".7"/>
<!-- Screen content: tiny app UI -->
<rect x="133" y="25.5" width="6" height="1.5" rx="0.5" fill="#59CB89"/>
<rect x="133" y="28.5" width="13" height="1" rx="0.5" fill="#003851" opacity="0.2"/>
<rect x="133" y="30.5" width="13" height="1" rx="0.5" fill="#003851" opacity="0.2"/>
<rect x="133" y="32.5" width="8" height="1" rx="0.5" fill="#003851" opacity="0.2"/>
<rect x="143" y="25" width="4" height="4" rx="0.5" fill="#EF8F26" opacity="0.5"/>

<!-- Tiny envelope (offer letter) floating -->
<path d="m155 18h10v7h-10z" fill="#FEFFFE" stroke="#003851" stroke-width=".6"/>
<path d="m155 18 5 4 5-4" stroke="#003851" stroke-width=".6" stroke-linejoin="round" fill="none"/>
<!-- Small star/sparkle -->
<path d="m157 30l0.8-1.6 0.8 1.6 1.6 0.8-1.6 0.8-0.8 1.6-0.8-1.6-1.6-0.8z" fill="#59CB89" opacity="0.6"/>

<!-- Thought bubble connectors -->
<path d="m50.66 68.9c3.47 0 5.13-2.69 5.13-4.8 0-3.66-2.37-5.14-5.13-5.14-3.07 0-4.72 2.65-4.72 4.76 0 3.01 1.75 5.18 4.72 5.18z" fill="#FEFFFE" stroke="#003851" stroke-linecap="round" stroke-linejoin="round" stroke-miterlimit="10" stroke-width="1.2"/>
<path d="m58.14 74.6c1.95 0 2.57-1.38 2.57-2.36 0-1.85-1.13-2.45-2.48-2.45-1.55 0-2.37 1.33-2.37 2.4 0 1.48 0.92 2.41 2.28 2.41z" fill="#FEFFFE" stroke="#003851" stroke-linecap="round" stroke-linejoin="round" stroke-miterlimit="10" stroke-width="1.2"/>

<!-- Thought-to-head wash (behind character so face, arms, desk stay visible) -->
<path d="m120.7 67.24 40.69 13.24-49.57 5.34 8.88-18.58z" fill="url(#paint1_linear_980_1928)"/>

<!-- Character body -->
<path d="m105.7 79.88c-4.9-8.74-12.87-12.47-21.9-12.27-12.72 0-23.61 10.51-28.9 25.32l-1.02 3.51h-16.61c-2.27 0-2.84 2.52-2.37 4.18l8.75 32.47c0.46 1.67 2.36 2.65 3.61 2.65l1.65 6.99c-0.73 1.18-0.93 4.11 1.39 4.89h9.58c1.12 1.09-2.11 5.61-9.48 6.16l7.68-0.88 3.84-3.51 3.95-1.48h7.26l6.64-2.46 4.34 9.49 2.27 1.47c3.47 0.88 6.94-1.22 7.35-6.46l3.07 4.26c3.47 1.9 8.8 0.38 9.21-4.51 0-6.29-3.84-15.63-10.03-19.43l6.75-16.55c5.88-10.02 7.48-25.61 2.97-33.84z" fill="#59CB89" stroke="#003851" stroke-linecap="round" stroke-linejoin="round" stroke-miterlimit="10" stroke-width="1.2"/>
<!-- Eyes -->
<path d="m85.88 89.82c0.58-4.91-2.31-6.95-5.73-7.25-4.14-0.36-7.46 2.49-7.72 6.96-0.26 4.21 2.76 7.42 7 7.42 3.58 0 5.99-3.11 6.45-7.13z" fill="#FEFFFE" stroke="#003851" stroke-linecap="round" stroke-linejoin="round" stroke-miterlimit="10" stroke-width="1.2"/>
<path d="m82.65 94.21c3.04-0.62 4.75-3.94 3.86-6.49-1.2-3.46-4.22-2.79-5.22-2.53-3.18 0.88-4.21 3.63-3.38 5.9 0.87 2.52 2.86 3.58 4.74 3.12z" fill="#003851"/>
<path d="m106.7 90.06c0-4.21-2.83-6.48-6.3-6.48-4.19 0-6.51 3.26-6.51 6.67 0 3.96 2.93 6.48 6.25 6.48 4.04 0 6.56-2.8 6.56-6.67z" fill="#FEFFFE" stroke="#003851" stroke-linecap="round" stroke-linejoin="round" stroke-miterlimit="10" stroke-width="1.2"/>
<path d="m102.1 94.31c2.67-0.65 3.7-3.5 3.03-5.77-0.93-3.11-3.4-2.53-4.18-2.28-2.59 0.88-3.47 3.3-2.75 5.47 0.73 2.18 2.12 3.06 3.9 2.58z" fill="#003851"/>
<!-- Mouth -->
<path d="m86.03 100c1.75 2.12 5.69 2.67 8.26-0.38" stroke="#003851" stroke-linecap="round" stroke-linejoin="round" stroke-miterlimit="10" stroke-width="1.2"/>
<!-- Mouth area / chin -->
<path d="m76.62 105.8c3.02 6.05 8.7 9 14.14 9.6 4.85 0.53 8.12 1.09 8.69 3.41 0.26 1.8-1.19 3.13-4.3 3.43h-10.51c-7.15 0-12.49-4.2-16.93-10.39" fill="#59CB89"/>
<path d="m76.62 105.8c3.02 6.05 8.7 9 14.14 9.6 4.85 0.53 8.12 1.09 8.69 3.41 0.26 1.8-1.19 3.13-4.3 3.43h-10.51c-7.15 0-12.49-4.2-16.93-10.39" stroke="#003851" stroke-linecap="round" stroke-linejoin="round" stroke-miterlimit="10" stroke-width="1.2"/>
<path d="m102.4 113.9 8.51 0.78c3.07 0.36 4.3 2.02 3.58 5.13l-0.72 0.87-13.73 0.2 2.36-6.98z" fill="#59CB89" stroke="#003851" stroke-linecap="round" stroke-linejoin="round" stroke-miterlimit="10" stroke-width="1.2"/>
<!-- Clipboard arm -->
<path d="m38.05 96.61h15.64c1.22 0 1.32 1.32 1.32 2.4l-0.45 26.31-1.65 10.36h-5.74c-1.02 0-1.74-0.87-2.2-2.54l-9.59-33.07c-0.62-2.22 0.51-3.46 2.67-3.46z" fill="#EF8F26" stroke="#003851" stroke-linecap="round" stroke-linejoin="round" stroke-miterlimit="10" stroke-width="1.2"/>
<path d="m46.91 135 2.47 7.58 3.37-1.28-1.02-6.89-4.82 0.59z" fill="#006482" stroke="#003851" stroke-linecap="round" stroke-linejoin="round" stroke-miterlimit="10" stroke-width="1.2"/>
<!-- Laptop -->
<path d="m165 81.02h-36.16c-1.35 0-2.7 1.03-3.11 2.4l-8.7 28.95c-0.41 1.37 0.36 2.69 1.71 2.69h36.67c1.35 0 2.7-1.34 3.11-2.69l8.06-28.54c0.56-1.62-0.22-2.81-1.58-2.81z" fill="#003851" stroke="#003851" stroke-linecap="round" stroke-linejoin="round" stroke-miterlimit="10" stroke-width="1.2"/>
<path d="m164.8 82.05h-33.05c-1.35 0-2.7 1.02-3.11 2.39l-8.5 26.97c-0.41 1.37 0 2.7 1.36 2.7h32.54c1.35 0 2.7-1.33 3.11-2.7l8.51-26.67c0.56-1.62 0.3-2.69-0.86-2.69z" fill="#EF8F26" stroke="#003851" stroke-linecap="round" stroke-linejoin="round" stroke-miterlimit="10" stroke-width="1.2"/>
<path d="m144.9 97.24c2.16 0 2.65-2.05 2.21-3.43-0.72-2.27-2.93-1.55-3.14-1.4-1.89 0.98-1.73 2.4-1.32 3.43 0.41 0.87 1.12 1.4 2.25 1.4z" fill="#F9D091"/>
<path d="m140.1 103.4h6.86l4.55 15.73c0.51 1.8-0.84 3.57-2.74 3.57h-15.06c-1.5 0-1.91-0.62-1.91-1.22 0-0.73 0.93-1.19 2.27-1.19h6.14c1.45 0 2.38-1.13 2.12-2.61l-2.78-12.81c-0.25-0.97-0.25-1.47 0.55-1.47z" fill="#EF8F26" stroke="#003851" stroke-linecap="round" stroke-linejoin="round" stroke-miterlimit="10" stroke-width="1.2"/>
<!-- Desk/shelf elements -->
<path d="m52.42 125.6h15.49c1.85 0 2.26 1.07 2.26 2.84v0.36h-17.75c-1.45 0-1.86-1.2-1.71-1.97 0.11-0.73 0.62-1.23 1.71-1.23z" fill="#EF8F26" stroke="#003851" stroke-linecap="round" stroke-linejoin="round" stroke-miterlimit="10" stroke-width="1.2"/>
<path d="m51.28 142.4h22.58c2.61 0 4.41 1.33 4.41 3.64 0 1.8-1.65 2.4-2.9 2.4h-24.09c-2.05 0-2.87-1.23-2.87-2.71 0-1.7 0.92-3.33 2.87-3.33z" fill="#EF8F26" stroke="#003851" stroke-linecap="round" stroke-linejoin="round" stroke-miterlimit="10" stroke-width="1.2"/>
<path d="m81.18 123.4h85.35v3.86h-85.35v-3.86z" fill="#F0C087" stroke="#003851" stroke-linecap="round" stroke-linejoin="round" stroke-miterlimit="10" stroke-width="1.2"/>
<path d="m104.9 120.2h21.99v1.93h-23.83c-1.25 0-1.86-0.36-1.86-0.81 0-0.67 1.35-1.12 3.7-1.12z" fill="#EF8F26" stroke="#003851" stroke-linecap="round" stroke-linejoin="round" stroke-miterlimit="10" stroke-width="1.2"/>
<!-- Table legs -->
<path d="m126.4 170.8-5.43-42.8h38.67l5.01 43.05" stroke="#003851" stroke-linecap="round" stroke-linejoin="round" stroke-miterlimit="10" stroke-width="1.2"/>
<!-- Wheels -->
<path d="m55.79 168.5c0 2.2-1.4 2.95-3.15 2.95-1.85 0-3.41-1.05-3.41-2.8 0-1.85 1.13-2.87 3.49-2.87 2 0 3.07 0.97 3.07 2.72z" fill="#006482" stroke="#003851" stroke-linecap="round" stroke-linejoin="round" stroke-miterlimit="10" stroke-width="1.2"/>
<path d="m70.27 168.4c0 1.95-1.35 2.77-2.7 2.77-1.65 0-2.48-1.12-2.48-2.59 0-1.58 1.12-2.55 2.57-2.55 1.65 0 2.61 0.87 2.61 2.37z" fill="#006482" stroke="#003851" stroke-linecap="round" stroke-linejoin="round" stroke-miterlimit="10" stroke-width="1.2"/>
<path d="m84.89 168.5c0 1.67-1.02 2.3-2.04 2.3-1.45 0-2.18-1.13-2.18-2.4 0-1.32 0.88-2.2 2.08-2.2 1.3 0 2.14 0.98 2.14 2.3z" fill="#003851" stroke="#003851" stroke-linecap="round" stroke-linejoin="round" stroke-miterlimit="10" stroke-width="1.2"/>
<path d="m51.79 165.8c7-1.18 16.12-2.36 24.63-0.69 1.75 0.38 3.36 0.91 4.56 1.66" stroke="#003851" stroke-linecap="round" stroke-linejoin="round" stroke-miterlimit="10" stroke-width="1.2"/>
<!-- Chair post -->
<path d="m65.45 155.1h4.82v6.62h-4.82v-6.62z" fill="#006482" stroke="#003851" stroke-linecap="round" stroke-linejoin="round" stroke-miterlimit="10" stroke-width="1.2"/>
<path d="m66.79 151.2h2.7v3.96h-2.7v-3.96z" fill="#006482" stroke="#003851" stroke-linecap="round" stroke-linejoin="round" stroke-miterlimit="10" stroke-width="1.2"/>
<path d="m63.06 147.7 2.16 1.27h4.44l2.05-1.27v-1.18h-8.65v1.18z" fill="#006482" stroke="#003851" stroke-linecap="round" stroke-linejoin="round" stroke-miterlimit="10" stroke-width="1.2"/>
<!-- Misc structure -->
<path d="m55.17 142.2 2.77-13.62" stroke="#003851" stroke-linecap="round" stroke-linejoin="round" stroke-miterlimit="10" stroke-width="1.2"/>
<path d="m54.91 136 19.11 4.91" stroke="#003851" stroke-linecap="round" stroke-linejoin="round" stroke-miterlimit="10" stroke-width="1.2"/>
<path d="m82.9 154.9 4.45-20.97 4.04-3.96" stroke="#003851" stroke-linecap="round" stroke-linejoin="round" stroke-miterlimit="10" stroke-width="1.2"/>
<!-- Tail/arm gradient -->
<path d="m81.24 131.2c4.79 0.62 9.88 6.91 11.63 12.86 0.77 2.85 0.62 4.61 0.87 6.28 0.41 2.57 2.57 4.84 6.04 4.74 3.27-0.25 5.63-2.47 5.63-6.33-0.62-6.53-4.19-14.84-9.63-18.75l-2.04 0.25-4.39 5.95-2.83-3.86-5.28-1.14z" fill="url(#paint0_linear_980_1928)" stroke="#003851" stroke-linecap="round" stroke-linejoin="round" stroke-miterlimit="10" stroke-width="1.2"/>

<defs>
  <linearGradient id="paint0_linear_980_1928" x1="89.52" x2="98.81" y1="131.9" y2="153.9" gradientUnits="userSpaceOnUse">
    <stop stop-color="#006482" offset="0"/>
    <stop stop-color="#59CB89" offset="1"/>
  </linearGradient>
  <linearGradient id="paint1_linear_980_1928" x1="122.6" x2="138.2" y1="66.28" y2="85.92" gradientUnits="userSpaceOnUse">
    <stop stop-color="#FFD7A8" offset="0"/>
    <stop stop-color="#FEFFFE" stop-opacity=".01" offset="1"/>
  </linearGradient>
</defs>
</svg>
