<svg xmlns="http://www.w3.org/2000/svg" viewBox="0 0 191 29" role="img" aria-label="emiliobuilds.com">
  <g fill="currentColor">
    <path d="m14.6 20.9c-0.6 1.7-2.3 3.4-4.6 3.4-3.6-0.1-5.1-3.1-5.1-6.7l9.5-1.2c0.2-3.8-2.2-6.8-6.4-6.8-3.9 0-6.4 3.4-6.4 8.2 0 4.7 2.7 8.4 7 8.4 3.5 0 5.4-2.2 6.4-5.1l-0.4-0.2zm-6.5-11c2.4 0 3 2.6 3 5.2 0 1-0.7 1.3-1.4 1.4l-4.7 0.6c0-2.8 0.6-7.2 3.1-7.2z"></path>
    <path d="m40.3 23.9c0 1.2 0.3 2.6 1.2 2.7 0.4 0.1 1-0.3 1.3-0.7l0.3 0.1c-0.6 0.8-1.5 1.5-2.8 1.5-2 0-3.6-1.2-3.6-3.9v-9.1c0-2.2-1.3-3.6-2.9-3.6-1.3 0-2.5 0.8-3.3 2.4 0.1 0.3 0.1 0.6 0.1 1v9.6c0 1.5 0.5 1.7 1.7 1.7v0.2h-6.9v-0.3c1.2 0 1.6-0.3 1.6-1.6v-9.4c0-2.2-1.3-3.6-2.8-3.6-1.3 0-2.5 0.9-3.3 2.4v10.6c0 1.5 0.5 1.7 1.6 1.7v0.2h-6.9v-0.2c1.2 0 1.7-0.3 1.7-1.7v-11.3c0-1.3-0.6-1.6-1.8-1.6v-0.2c1.7-0.2 3.8-0.5 5.3-1v2.8c1.1-1.7 2.9-2.9 5-2.9 2.2 0 3.9 1 4.6 3.1 1-1.8 2.8-3.1 5-3.1 2.5 0 4.9 1.4 4.9 4.9v9.3z"></path>
    <path d="m46.5 2.5c-1.1 0-2.1 0.8-2.1 1.9s0.9 2.2 2.1 2.2c1.1 0 2.1-0.9 2.1-2s-0.9-2.1-2.1-2.1z"></path>
    <path d="m48.3 23.9v-14.3c-1.5 0.5-3.4 1-5.5 1.2v0.2c1.3 0 1.9 0.2 1.9 1.6v11.3c0 0.7 0.2 1.4 0.8 1.9h4.4v-0.2c-1.2 0-1.6-0.4-1.6-1.7z"></path>
    <path d="m59 22.8c-0.2 1.5-0.7 2.9-1.7 2.9-0.7 0-1.1-0.7-1.1-2.1v-22.3c-1.5 0.7-3.4 1.2-5.6 1.5v0.2c1.3 0 1.9 0.2 1.9 1.6v18.7c0 2.8 1.4 3.8 3.1 3.8 2.3 0 3.3-1.9 3.6-4.1l-0.2-0.2z"></path>
    <path d="m62.5 2.5c-1.1 0-2.1 0.8-2.2 1.9 0 1.1 0.8 2.2 2.2 2.2 1.1 0 2.1-0.9 2.1-2s-0.9-2.1-2.1-2.1z"></path>
    <path d="m64.5 23.9v-14.3c-1.5 0.5-3.4 1-5.6 1.2v0.2c1.3 0 1.8 0.2 1.8 1.6v11.3c0 0.6-0.2 1.3-0.6 1.9h6.2v-0.2c-1.2 0-1.8-0.4-1.8-1.7z"></path>
    <path d="m75.7 9.6c-4.8 0-8.5 3.5-8.5 8.4 0.2 4.5 3.2 8.2 8.6 8.2 5.1 0 8.5-3.2 8.5-8.1-0.1-4.5-3.2-8.5-8.6-8.5zm0.5 16.4c-3.2 0.1-5-3.9-5.1-8.6-0.2-4.4 1.4-7.5 4.2-7.4 3.2 0 5.1 4.1 5.2 8.8 0.1 4.2-1.6 7.1-4.3 7.2z"></path>
    <path d="m95.3 9.7c-1.8 0-3.6 1-5.1 3.1v-11.5c-1.5 0.7-3.4 1.2-5.4 1.5v0.2c1.2 0 1.9 0.2 1.9 1.6v21.7l3.2-1.8c1 1 2.2 1.7 4.6 1.7 4.4 0 7-3.2 7-8.4 0-4.7-2.6-8.1-6.2-8.1zm-1.5 16c-1.5 0-2.8-1.1-3.6-2.4v-7.7c0.7-2.9 1.9-5.2 4.1-5.2 2.4 0 3.6 2.5 3.6 6.8 0 4.7-1.5 8.5-4.1 8.5z"></path>
    <path d="m119.6 25.1c-0.3 0.4-0.7 0.5-1 0.5-0.8 0-1.1-1-1.1-1.9v-14.1c-1.5 0.5-3.4 0.9-5.3 1.1v0.2c1.1 0 1.8 0.2 1.8 1.4v10.5c-0.9 1.3-2 2.2-3.6 2.1-1.9 0-3-1.1-3-3.5v-11.8c-1.5 0.5-3.4 0.9-5.4 1.1v0.3c1.1 0 1.8 0.2 1.8 1.3v9.1c0 3.5 2 4.8 4.7 4.8 2.2 0 4.1-1.1 5.3-2.9 0.1 2.3 1.3 3.1 3.2 3.1 0.9 0 1.9-0.5 2.6-1.2v-0.1z"></path>
    <path d="m123.5 2.5c-1.1 0-2.1 0.8-2 2.1 0 1 0.9 2 2 2s2.1-0.9 2.1-2-1-2.1-2.1-2.1z"></path>
    <path d="m125.5 23.9v-14.3c-1.5 0.5-3.4 1-5.4 1.2v0.2c1.2 0 1.7 0.2 1.7 1.6v11.3c0 1-0.2 1.5-1 1.7l0.1 0.2h6.2v-0.2c-1.2 0-1.6-0.4-1.6-1.7z"></path>
    <path d="m135.3 25.4c-0.8-0.1-2.4 0-2.4-2.5v-21.6c-1.5 0.7-3.4 1.2-5.4 1.4v0.3c1.2 0 1.7 0.2 1.7 1.6v18.1c0 2.7 1.7 3.5 3.3 3.5 1 0 2.1-0.3 2.9-1.2l-0.1 0.4z"></path>
    <path d="m151.6 23.9v-22.6c-1.4 0.7-3.3 1.2-5.3 1.5v0.2c1.2 0 1.7 0.2 1.7 1.6v7.4c-0.7-1.4-2.7-2.4-4.5-2.4-4.1 0-7.9 3.2-7.9 8.5 0.1 4.9 3 8.1 7.1 8.1 2.3 0 4.2-1 5.3-2.8v2.7c0.6-0.2 1.7-0.4 2.6-0.4h2.7v-0.1c-1.2 0-1.7-0.4-1.7-1.7zm-3.6-1.3c-0.6 1.4-1.9 2.5-3.3 2.5-2.8 0-5.2-2.2-5.2-7.9 0-4.2 1.8-7.1 4.4-7.1 1.7 0 3.4 0.8 4.1 2.7v9.8z"></path>
    <path d="m162 16.6-1.9-0.8c-1.7-0.7-2.8-1.7-2.7-3 0-1.5 1.2-2.8 3-2.8 2.8 0 4.4 2.6 5.5 5.1v-4.3c-1.6-0.7-3.2-1.1-5.2-1.1-2.9 0-6 1.3-6 4.6 0 1.9 1.4 3.6 3.7 4.6l2.1 0.9c2 0.9 3.9 2 3.8 3.7-0.1 1.5-1.4 2.5-3.4 2.5-2.9 0-4.8-2.4-6-5.7v4.8c1.8 0.6 3.5 1.1 5.6 1.1 3.7 0 6.4-1.5 6.4-4.8 0-2.3-1.6-3.8-4.9-4.8z"></path>
    <path d="m175.9 24.8c-0.3 0.7-0.7 1.4-2 1.4-1.2 0.1-2.2-0.8-2.2-2.2 0-1.5 1-2.4 2.4-2.4 1.3 0 2 0.6 1.8 1.4l-0.9 0.3c0.3-1-0.3-1.6-0.9-1.6-0.9 0-1.2 1-1.1 2.1 0 1.3 0.7 1.9 1.7 1.9 0.5 0 1-0.2 1.2-0.9z"></path>
    <path d="m179 21.6c-1.4 0-2.4 1-2.4 2.4 0 1.2 0.9 2.3 2.4 2.3 1.6 0 2.5-1 2.5-2.4 0-1.2-0.9-2.3-2.5-2.3zm0.2 4.6c-1 0-1.4-1.1-1.4-2.4-0.1-1.2 0.3-2.1 1.1-2.1 0.9 0 1.4 1.1 1.4 2.4 0.1 1.2-0.4 2.1-1.1 2.1z"></path>
    <path d="m189.1 25.5c0 0.4 0.1 0.5 0.5 0.5v0.1h-1.9v-0.1c0.3 0 0.4-0.1 0.4-0.5v-2.5c0-0.6-0.3-1-0.8-1-0.4 0-0.8 0.2-1 0.6v2.9c0 0.4 0.2 0.5 0.5 0.5v0.1h-1.8v-0.1c0.2 0 0.4-0.1 0.4-0.5v-2.5c0-0.6-0.4-1-0.8-1s-0.8 0.2-1 0.6v2.9c0 0.4 0.1 0.5 0.5 0.5v0.1h-2v-0.1c0.4 0 0.5-0.1 0.5-0.5v-3c0-0.4-0.1-0.5-0.5-0.5v-0.1c0.5 0 1.1-0.1 1.5-0.3v0.8c0.3-0.4 0.9-0.8 1.5-0.8s1.1 0.3 1.2 0.9c0.3-0.5 1-0.9 1.6-0.9 0.7 0 1.3 0.4 1.3 1.4l-0.1 2.5z"></path>
  </g>
  
  <circle cx="168.8" cy="24.8" r="1.5" fill="var(--gold, #FFB703)"></circle>
</svg>